<svg width="112" height="24" viewBox="0 0 112 24" fill="none" xmlns="http://www.w3.org/2000/svg">
<path d="M107.518 7.59795C109.461 7.59795 111.036 6.02287 111.036 4.07992C111.036 2.13697 109.461 0.56189 107.518 0.56189C105.575 0.56189 104 2.13697 104 4.07992C104 6.02287 105.575 7.59795 107.518 7.59795Z" fill="#9CFF00"/>
<path d="M31.4388 5.65421C29.2739 4.45815 27.0121 4.24433 24.7235 5.01275C23.6343 5.38025 22.5786 5.97829 21.3992 6.89371C20.1497 7.86593 19.0639 8.97847 18.1585 9.95403C18.1385 9.93064 18.1151 9.91059 18.095 9.89055C17.9046 9.70011 17.7142 9.50968 17.5237 9.3159C17.0359 8.82478 16.5348 8.31696 16.0136 7.83586C14.8743 6.78012 13.7484 5.99165 12.5691 5.42703C11.5367 4.93257 10.5645 4.66529 9.59897 4.60849C7.19014 4.46817 5.07866 5.18982 3.30795 6.74671C0.732071 9.01188 -0.347064 11.8985 0.0972838 15.3296C0.471471 18.2129 1.89807 20.4714 4.34365 22.0416C5.79363 22.9704 7.32044 23.4381 8.90071 23.4381C9.59897 23.4381 10.3106 23.3479 11.0322 23.1642C12.1615 22.8769 13.2607 22.3256 14.4935 21.4302C15.7731 20.4981 16.8722 19.4056 17.6908 18.557C17.8478 18.3933 18.0015 18.2329 18.1618 18.0592C18.2888 18.1895 18.4158 18.3231 18.5461 18.4568C18.9169 18.841 19.2978 19.2385 19.6887 19.6194C20.9048 20.7988 22.0039 21.644 23.1499 22.2855C24.3359 22.947 25.4552 23.3145 26.5744 23.398C28.9398 23.5785 31.0379 22.9169 32.8086 21.4302C35.5783 19.1049 36.7175 16.1081 36.193 12.5232C35.7453 9.45957 34.145 7.15096 31.4388 5.65421ZM12.3051 16.2116C11.8909 16.5658 11.4398 16.8999 10.9988 17.224L10.902 17.2975C10.765 17.3977 10.5979 17.4845 10.4242 17.5781L10.3373 17.6249C9.42859 18.106 8.51985 18.1026 7.55765 17.6148C6.42507 17.0435 5.73349 16.1014 5.50296 14.8185C5.22232 13.2649 5.65664 11.9519 6.80259 10.9095C7.35385 10.4084 8.03875 10.1211 8.84058 10.0509C8.90406 10.0442 8.96419 10.0442 9.02767 10.0442C9.38849 10.0442 9.75934 10.1344 10.1736 10.3249C10.6781 10.5554 11.1726 10.8728 11.7706 11.3539C12.7862 12.1758 13.715 13.1446 14.5135 14.0133C13.8587 14.7349 13.1103 15.5234 12.3051 16.215V16.2116ZM30.8742 14.4042C30.7539 15.8608 30.0456 16.9366 28.7761 17.5981C27.8072 18.1026 26.8784 18.106 25.9396 17.6048C25.3917 17.3108 24.8471 16.9333 24.2725 16.4455C23.3604 15.6704 22.5385 14.8151 21.7901 13.9966C21.9071 13.8797 22.0207 13.7594 22.1376 13.6424C22.6521 13.1146 23.1365 12.6201 23.651 12.1424C24.1789 11.6579 24.7502 11.2169 25.4485 10.7057C25.8694 10.3984 26.3238 10.1912 26.7949 10.0977C27.5466 9.94734 28.2783 10.091 28.9732 10.5253C30.3797 11.404 31.0212 12.7103 30.8809 14.4042H30.8742Z" fill="white"/>
<path d="M57.5976 5.17249V22.8275L50.8566 22.8275L46.6301 14.8025L45.6671 12.6357H45.6136L45.7206 16.2737V22.8275H40.3171V5.17249L47.0581 5.17249L51.2846 13.2242L52.2476 15.3642H52.3011L52.1941 11.7262V5.17249L57.5976 5.17249Z" fill="white"/>
<path d="M77.9836 9.74674L69.5841 9.74674V12.2077L76.3786 12.2077V16.782H69.5841V22.8275H63.3514V5.17249L77.9836 5.17249V9.74674Z" fill="white"/>
<path d="M99.337 5.17249V9.74674L93.8265 9.74674V22.8275H87.5938V9.74674H82.0565V5.17249L99.337 5.17249Z" fill="white"/>
</svg>
